<svg width="80" height="80" viewBox="0 0 80 80" fill="none" xmlns="http://www.w3.org/2000/svg">
<g clip-path="url(#clip0_2068_1672)">
<mask id="mask0_2068_1672" style="mask-type:luminance" maskUnits="userSpaceOnUse" x="-1" y="-2" width="81" height="83">
<path d="M79.6953 -1.59766H-0.304688V80.6453H79.6953V-1.59766Z" fill="white"/>
</mask>
<g mask="url(#mask0_2068_1672)">
<mask id="mask1_2068_1672" style="mask-type:luminance" maskUnits="userSpaceOnUse" x="-1" y="-2" width="81" height="83">
<path d="M78.0923 79.0427V0.00557709H1.29814V79.0427H78.0923Z" fill="white" stroke="white" stroke-width="3.20565"/>
</mask>
<g mask="url(#mask1_2068_1672)">
<path d="M58.8047 49.2423L69.273 38.5935C73.1831 34.5737 80.7028 39.6448 76.64 44.5585L63.9639 59.8897C63.4675 60.49 62.8977 61.0218 62.2686 61.4718C60.2249 62.8141 57.7911 63.2615 55.3935 63.2615H36.5828C35.222 63.2615 33.8623 63.3425 32.5106 63.5042L27.1004 64.1289L15.8789 52.9339C15.8789 52.9339 22.245 40.5754 34.7321 44.1277C37.0678 44.7922 39.4846 45.1091 41.9079 45.1091H54.271C60.091 45.1091 60.1364 54.6156 54.2224 54.6156H43.4598" stroke="#EF172F" stroke-width="3.20565" stroke-miterlimit="10" stroke-linecap="round" stroke-linejoin="round"/>
<path d="M19.7303 78.6963L30.4059 67.4364C30.4073 67.4349 30.408 67.4329 30.408 67.4308C30.408 67.4288 30.4071 67.4268 30.4057 67.4253L12.2907 49.3533C12.2893 49.3519 12.2873 49.3511 12.2853 49.3511C12.2833 49.3511 12.2814 49.352 12.28 49.3535L1.50391 60.8544L19.7303 78.6963Z" stroke="#EF172F" stroke-width="3.20565" stroke-miterlimit="10" stroke-linecap="round" stroke-linejoin="round"/>
<path d="M37.0664 54.554L37.0813 54.6191" stroke="#EF172F" stroke-width="3.20565" stroke-miterlimit="10" stroke-linecap="round" stroke-linejoin="round"/>
<path d="M14.3131 15.7613C10.9289 16.0906 8.28125 19.0202 8.28125 22.5854V29.8843C8.28125 31.1451 9.27531 32.167 10.5017 32.167H25.7267C26.9531 32.167 27.9471 31.1451 27.9471 29.8843V22.5854C27.9471 19.0175 25.2956 16.0863 21.9078 15.7605" stroke="#EF172F" stroke-width="3.20565" stroke-miterlimit="10" stroke-linecap="round" stroke-linejoin="round"/>
<path d="M25.5646 9.14942C25.5646 13.3795 22.229 16.8086 18.1144 16.8086C13.9997 16.8086 10.6641 13.3795 10.6641 9.14942C10.6641 4.91938 13.9997 1.49024 18.1144 1.49024C22.229 1.49024 25.5646 4.91938 25.5646 9.14942Z" stroke="#EF172F" stroke-width="3.20565" stroke-miterlimit="10" stroke-linecap="round" stroke-linejoin="round"/>
<path d="M33.9791 15.7613C30.5949 16.0906 27.9473 19.0202 27.9473 22.5854V29.8843C27.9473 31.1451 28.9413 32.167 30.1677 32.167H45.3927C46.6191 32.167 47.6131 31.1451 47.6131 29.8843V22.5854C47.6131 19.0175 44.9616 16.0863 41.5738 15.7605" stroke="#EF172F" stroke-width="3.20565" stroke-miterlimit="10" stroke-linecap="round" stroke-linejoin="round"/>
<path d="M45.2307 9.14942C45.2307 13.3795 41.895 16.8086 37.7804 16.8086C33.6657 16.8086 30.3301 13.3795 30.3301 9.14942C30.3301 4.91938 33.6657 1.49024 37.7804 1.49024C41.895 1.49024 45.2307 4.91938 45.2307 9.14942Z" stroke="#EF172F" stroke-width="3.20565" stroke-miterlimit="10" stroke-linecap="round" stroke-linejoin="round"/>
<path d="M53.6451 15.7613C50.2609 16.0906 47.6133 19.0202 47.6133 22.5854V29.8843C47.6133 31.1451 48.6073 32.167 49.8337 32.167H65.0587C66.2851 32.167 67.2792 31.1451 67.2792 29.8843V22.5854C67.2792 19.0175 64.6276 16.0863 61.2398 15.7605" stroke="#EF172F" stroke-width="3.20565" stroke-miterlimit="10" stroke-linecap="round" stroke-linejoin="round"/>
<path d="M64.8967 9.14942C64.8967 13.3795 61.5611 16.8086 57.4464 16.8086C53.3317 16.8086 49.9961 13.3795 49.9961 9.14942C49.9961 4.91938 53.3317 1.49024 57.4464 1.49024C61.5611 1.49024 64.8967 4.91938 64.8967 9.14942Z" stroke="#EF172F" stroke-width="3.20565" stroke-miterlimit="10" stroke-linecap="round" stroke-linejoin="round"/>
</g>
</g>
</g>
<defs>
<clipPath id="clip0_2068_1672">
<rect width="80" height="80" fill="white"/>
</clipPath>
</defs>
</svg>
