<svg width="228" height="397" viewBox="0 0 228 397" fill="none" xmlns="http://www.w3.org/2000/svg">
<path d="M184.946 121.068C184.946 121.068 175.941 127.608 155.604 127.608C138.759 127.608 126.553 113.375 126.553 113.375H102.154C102.154 113.375 89.9544 127.608 73.1033 127.608C52.7726 127.608 43.7671 121.068 43.7671 121.068L41.4414 123.248C41.4414 123.248 45.7954 144.162 80.6575 144.162H148.062C182.924 144.162 187.278 123.248 187.278 123.248L184.946 121.068ZM123.912 118.032C124.325 118.766 124.684 119.529 124.987 120.315C125.649 121.965 126.207 123.654 126.657 125.374C127.161 127.195 127.586 129.054 127.986 130.377C128.127 130.904 128.353 131.405 128.654 131.859C128.745 131.988 128.86 132.098 128.994 132.181L129.158 132.266L128.976 132.302C128.785 132.334 128.589 132.318 128.405 132.254C127.777 132.004 127.23 131.583 126.827 131.039C125.675 129.542 124.847 127.822 124.398 125.987C123.914 124.22 123.669 122.396 123.669 120.564C123.653 119.711 123.728 118.858 123.894 118.02L123.912 118.032ZM99.713 132.181C99.8497 132.102 99.9677 131.994 100.059 131.865C100.359 131.408 100.585 130.906 100.727 130.377C101.128 129.06 101.553 127.22 102.051 125.374C102.501 123.655 103.057 121.966 103.715 120.315C104.021 119.529 104.384 118.766 104.802 118.032C104.966 118.866 105.042 119.715 105.026 120.564C105.027 122.397 104.78 124.221 104.292 125.987C103.842 127.822 103.015 129.542 101.863 131.039C101.456 131.58 100.91 131.999 100.284 132.254C100.102 132.323 99.904 132.34 99.713 132.302L99.5308 132.266L99.713 132.181ZM177.969 130.001C176.981 131.038 175.909 131.99 174.763 132.849C171.818 135.102 166.947 137.507 160.705 138.83C157.348 139.542 153.938 139.968 150.509 140.106C146.866 140.239 143.058 140.342 139.105 140.421C135.152 140.5 131.077 140.555 126.96 140.61L114.39 140.682L101.82 140.64L89.6751 140.47C85.7219 140.385 81.9266 140.33 78.2771 140.172C74.8422 140.036 71.4252 139.608 68.0632 138.891C61.8146 137.549 56.9505 135.12 54.0053 132.873C52.863 132.008 51.7928 131.051 50.8051 130.013C50.1372 129.284 49.8032 128.878 49.8032 128.878C49.8032 128.878 50.1614 129.266 50.8719 129.946C51.9065 130.919 53.0218 131.803 54.2057 132.588C56.0339 133.814 57.9933 134.833 60.0474 135.624C62.7018 136.654 65.4549 137.409 68.2635 137.877C71.5835 138.433 74.9414 138.734 78.3074 138.776C79.2062 138.776 80.1292 138.776 81.0461 138.776L83.8638 138.703L89.6751 138.581L101.82 138.411L114.39 138.369L126.96 138.442C131.108 138.496 135.188 138.533 139.105 138.63L144.916 138.764C146.823 138.836 148.681 138.879 150.467 138.843C153.839 138.799 157.203 138.497 160.529 137.938C163.341 137.461 166.096 136.696 168.751 135.654C170.8 134.857 172.757 133.839 174.587 132.618C175.767 131.826 176.88 130.939 177.914 129.965C178.619 129.272 178.977 128.884 178.977 128.884C178.977 128.884 178.625 129.266 177.951 129.989L177.969 130.001Z" fill="#511414"/>
<path d="M172.145 65.1224L169.819 62.9485C169.819 62.9485 166.625 69.4824 146.289 69.4824C129.444 69.4824 120.73 55.2485 120.73 55.2485H107.977C107.977 55.2485 99.2633 69.4824 82.4121 69.4824C62.0754 69.4824 58.8813 62.9485 58.8813 62.9485L56.5555 65.1224C56.5555 65.1224 55.1041 86.0421 89.9541 86.0421H138.759C173.597 86.0664 172.145 65.1224 172.145 65.1224ZM166.528 71.6989C165.748 72.5959 164.916 73.4475 164.038 74.2493C162.661 75.4972 161.145 76.5831 159.521 77.486C157.412 78.6612 155.169 79.5767 152.841 80.2125C150.085 80.9652 147.269 81.4792 144.424 81.7489L142.123 81.931L139.761 82.0221L134.903 82.2043C131.624 82.3075 128.223 82.4047 124.786 82.4533C121.349 82.5019 117.839 82.5201 114.335 82.5504C107.334 82.5504 100.332 82.4776 93.7677 82.259L88.9097 82.0889L86.5657 81.9978L84.2521 81.8096C81.4019 81.5502 78.5809 81.034 75.8235 80.2672C71.6698 79.1697 67.8307 77.115 64.6137 74.2676C63.7383 73.4626 62.9111 72.607 62.1361 71.705C61.6078 71.0977 61.3285 70.7395 61.3285 70.7395C61.3285 70.7395 61.626 71.0613 62.1907 71.6503C63.0181 72.4961 63.8941 73.2929 64.8141 74.0368C66.2365 75.1842 67.7751 76.1794 69.4049 77.0063C71.5289 78.0611 73.7714 78.8582 76.0846 79.3806C78.8146 79.9849 81.5884 80.3707 84.3796 80.5344L86.6264 80.6437H88.9704C89.7598 80.6437 90.525 80.6437 91.3448 80.589L93.7737 80.5162C100.338 80.2976 107.34 80.2307 114.341 80.2247C117.845 80.255 121.343 80.2247 124.792 80.3218C128.241 80.419 131.63 80.4676 134.909 80.5708C138.044 80.7529 141.186 80.7529 144.321 80.5708C147.116 80.4166 149.893 80.0265 152.622 79.4049C154.939 78.8687 157.182 78.0531 159.302 76.9759C160.93 76.1452 162.467 75.1459 163.887 73.9943C164.804 73.2473 165.676 72.4464 166.498 71.5957L167.366 70.6848L166.528 71.6989Z" fill="#511414"/>
<path d="M225.598 272.128C225.598 272.128 216.592 278.662 196.255 278.662C179.41 278.662 167.211 264.428 167.211 264.428H61.4705C61.4705 264.428 49.2708 278.662 32.4197 278.662C12.0829 278.662 3.07747 272.128 3.07747 272.128L0.757812 274.308C0.757812 274.308 5.11176 295.221 39.9739 295.221H188.707C223.563 295.221 227.923 274.308 227.923 274.308L225.598 272.128ZM156.371 271.994L157.835 273.354C158.351 273.828 158.91 274.32 159.48 274.824C160.051 275.328 160.695 275.82 161.302 276.336C161.909 276.852 162.571 277.314 163.197 277.818C163.822 278.322 164.508 278.747 165.164 279.178C165.82 279.609 166.464 280.058 167.138 280.392C167.812 280.726 168.419 281.145 169.063 281.376C169.706 281.607 170.277 281.983 170.885 282.141C171.492 282.299 171.99 282.518 172.463 282.694C172.937 282.87 173.368 282.918 173.726 283.016C174.437 283.204 174.856 283.331 174.856 283.331C174.856 283.331 174.443 283.398 173.69 283.477C173.239 283.539 172.785 283.572 172.33 283.574C171.808 283.544 171.212 283.507 170.563 283.441C169.865 283.348 169.175 283.204 168.498 283.01C167.734 282.816 166.988 282.556 166.269 282.232C165.494 281.909 164.74 281.537 164.011 281.121C163.27 280.696 162.559 280.192 161.843 279.706C161.126 279.22 160.464 278.649 159.857 278.06C159.25 277.471 158.642 276.901 158.102 276.306C157.573 275.744 157.074 275.154 156.608 274.538C156.134 273.974 155.764 273.385 155.394 272.862C154.593 271.685 153.925 270.422 153.402 269.097L156.371 271.994ZM141.415 271.696C141.694 272.097 142.022 272.504 142.332 272.96C142.641 273.415 143.012 273.858 143.34 274.35C143.668 274.842 144.068 275.31 144.439 275.808C144.809 276.306 145.18 276.81 145.593 277.271C146.006 277.733 146.37 278.237 146.807 278.68C147.244 279.123 147.603 279.572 148.022 279.973C148.441 280.374 148.847 280.714 149.236 281.085C149.625 281.455 150.05 281.692 150.414 281.965C150.766 282.185 151.129 282.388 151.501 282.572C151.79 282.74 152.098 282.873 152.418 282.967C152.946 283.161 153.274 283.295 153.274 283.295C153.274 283.295 152.959 283.356 152.357 283.422C151.998 283.487 151.63 283.487 151.27 283.422C150.793 283.382 150.321 283.293 149.862 283.155C149.321 282.989 148.796 282.773 148.295 282.512C147.734 282.229 147.201 281.893 146.704 281.51C146.168 281.115 145.662 280.681 145.192 280.21C144.704 279.74 144.25 279.237 143.832 278.704C143.396 278.185 142.991 277.642 142.617 277.077C142.241 276.536 141.949 275.947 141.633 275.413C141.095 274.409 140.635 273.365 140.255 272.292C139.87 271.245 139.599 270.16 139.447 269.055C139.447 269.055 140.297 270.13 141.427 271.696H141.415ZM123.883 269.073C124.295 269.808 124.654 270.571 124.958 271.356C125.63 273.015 126.196 274.715 126.653 276.445C127.157 278.267 127.582 280.125 127.982 281.449C128.126 281.975 128.351 282.475 128.65 282.931C128.742 283.057 128.858 283.164 128.99 283.246L129.154 283.337L128.972 283.374C128.78 283.406 128.584 283.387 128.401 283.319C127.773 283.069 127.226 282.648 126.823 282.105C125.672 280.607 124.845 278.887 124.394 277.052C123.911 275.285 123.666 273.462 123.665 271.63C123.651 270.772 123.728 269.915 123.896 269.073H123.883ZM99.6846 283.222C99.8121 283.18 99.9094 283.04 100.031 282.906C100.332 282.452 100.558 281.951 100.699 281.425C101.1 280.101 101.525 278.261 102.023 276.421C102.473 274.7 103.029 273.009 103.686 271.356C103.993 270.57 104.356 269.807 104.773 269.073C104.938 269.909 105.013 270.76 104.998 271.611C104.998 273.444 104.751 275.268 104.263 277.034C103.812 278.868 102.985 280.589 101.834 282.086C101.431 282.63 100.884 283.051 100.255 283.301C100.074 283.371 99.8763 283.39 99.6846 283.356L99.5025 283.319L99.6846 283.222ZM76.2874 282.985C76.6181 282.896 76.9349 282.761 77.2286 282.584C77.5565 282.372 77.9148 282.244 78.2913 281.977C78.6678 281.71 79.0747 281.449 79.4633 281.097C79.8519 280.744 80.2831 280.417 80.6778 279.985C81.0725 279.554 81.4915 279.16 81.8923 278.692C82.2931 278.224 82.6939 277.775 83.1068 277.283C83.5197 276.791 83.8659 276.299 84.2545 275.82L85.3536 274.362C86.0398 273.397 86.7017 272.492 87.2786 271.709C88.4081 270.142 89.2643 269.091 89.2643 269.091C89.1161 270.197 88.8451 271.282 88.4566 272.328C88.083 273.403 87.6241 274.447 87.0842 275.449C86.7624 275.99 86.477 276.573 86.1005 277.113C85.7266 277.678 85.3212 278.221 84.886 278.741C84.4681 279.274 84.0136 279.777 83.5257 280.247C83.0566 280.717 82.551 281.149 82.0137 281.54C81.5164 281.925 80.9837 282.263 80.4227 282.548C79.9223 282.811 79.3976 283.024 78.856 283.186C78.3879 283.331 77.9053 283.425 77.4169 283.465C77.0677 283.53 76.7094 283.53 76.3603 283.465C75.753 283.398 75.4433 283.337 75.4433 283.337C75.4433 283.337 75.753 283.18 76.2995 282.985H76.2874ZM54.979 282.985C55.3312 282.888 55.7806 282.803 56.2664 282.657C56.7522 282.512 57.2623 282.287 57.827 282.111C58.3918 281.935 58.9808 281.589 59.6123 281.346C60.2438 281.103 60.8633 280.672 61.5373 280.362C62.2113 280.052 62.8307 279.542 63.5169 279.147C64.2031 278.753 64.8225 278.237 65.4783 277.781C66.1342 277.326 66.7657 276.816 67.373 276.299C67.9802 275.783 68.5875 275.31 69.1947 274.787L70.8403 273.312L72.3038 271.952L75.34 269.043C74.8211 270.368 74.155 271.631 73.3543 272.808C72.99 273.33 72.6135 273.919 72.1398 274.484C71.6723 275.098 71.1738 275.688 70.646 276.251C70.1056 276.858 69.5165 277.465 68.8911 278.006C68.2656 278.546 67.5673 279.099 66.9054 279.651C66.2435 280.204 65.4784 280.641 64.7314 281.066C64.0007 281.48 63.2465 281.851 62.4725 282.178C61.0983 282.768 59.653 283.176 58.1731 283.392C57.5112 283.459 56.91 283.495 56.3514 283.526C55.9064 283.523 55.4622 283.491 55.0215 283.429C54.2807 283.35 53.8617 283.283 53.8617 283.283C53.8617 283.283 54.2685 283.186 54.9972 283.003L54.979 282.985ZM219.209 280.368C218.948 280.684 218.529 281.121 217.995 281.686C216.346 283.292 214.489 284.67 212.475 285.785C209.334 287.518 205.965 288.804 202.468 289.604C197.935 290.654 193.299 291.192 188.647 291.207C178.512 291.305 166.695 291.517 154.033 291.56L114.356 291.717L74.6782 291.566C62.017 291.523 50.2 291.305 40.065 291.207C35.4126 291.196 30.7763 290.661 26.244 289.61C22.7473 288.807 19.3792 287.522 16.2366 285.791C14.2206 284.677 12.3638 283.296 10.7166 281.686C10.158 281.127 9.73896 280.69 9.50213 280.368L9.09532 279.9L9.52645 280.35C9.79971 280.647 10.243 281.066 10.826 281.564C12.5442 283.06 14.4412 284.337 16.4734 285.366C19.6292 286.945 22.9889 288.08 26.4565 288.736C30.9513 289.57 35.5184 289.951 40.0892 289.871C50.2242 289.774 62.0413 289.556 74.7024 289.519L114.38 289.361L154.058 289.519C166.719 289.562 178.536 289.78 188.671 289.871C193.242 289.95 197.809 289.57 202.304 288.736C205.772 288.079 209.132 286.942 212.287 285.36C214.32 284.335 216.217 283.06 217.934 281.564C218.541 281.036 218.96 280.617 219.234 280.313L219.665 279.87L219.209 280.368Z" fill="#511414"/>
<path d="M202.357 190.787C202.357 190.787 193.352 197.327 173.015 197.327C156.17 197.327 143.97 183.093 143.97 183.093H84.7089C84.7089 183.093 72.5092 197.327 55.658 197.327C35.3213 197.327 26.3158 190.787 26.3158 190.787L23.9961 192.967C23.9961 192.967 28.3501 213.88 63.2123 213.88H165.467C200.323 213.88 204.683 192.967 204.683 192.967L202.357 190.787ZM141.426 190.362C141.705 190.756 142.033 191.163 142.343 191.619C142.652 192.074 143.023 192.523 143.351 193.015C143.679 193.507 144.08 193.975 144.45 194.473C144.82 194.971 145.191 195.468 145.604 195.936C146.017 196.404 146.381 196.896 146.818 197.345C147.255 197.794 147.614 198.231 148.033 198.632C148.452 199.033 148.859 199.379 149.247 199.744C149.636 200.108 150.061 200.351 150.425 200.624C150.777 200.844 151.14 201.047 151.512 201.231C151.8 201.402 152.108 201.534 152.429 201.626C152.957 201.82 153.285 201.954 153.285 201.954C153.285 201.954 152.97 202.021 152.368 202.087C152.008 202.146 151.642 202.146 151.282 202.087C150.803 202.048 150.331 201.956 149.873 201.814C149.332 201.662 148.808 201.459 148.306 201.207C147.745 200.922 147.212 200.584 146.715 200.199C146.179 199.807 145.674 199.374 145.203 198.906C144.715 198.436 144.261 197.933 143.843 197.4C143.41 196.878 143.005 196.335 142.628 195.772C142.252 195.226 141.96 194.643 141.644 194.102C141.105 193.099 140.645 192.055 140.266 190.981C139.881 189.934 139.61 188.849 139.458 187.744C139.458 187.744 140.296 188.789 141.426 190.362ZM123.895 187.738C124.307 188.472 124.667 189.235 124.969 190.021C125.636 191.668 126.198 193.356 126.651 195.074C127.156 196.896 127.581 198.754 127.981 200.077C128.124 200.606 128.349 201.108 128.649 201.565C128.741 201.691 128.857 201.799 128.989 201.881L129.153 201.966L128.971 202.002C128.78 202.034 128.584 202.018 128.4 201.954C127.771 201.704 127.225 201.283 126.822 200.739C125.67 199.242 124.842 197.522 124.393 195.687C123.909 193.92 123.664 192.096 123.664 190.264C123.651 189.417 123.728 188.57 123.895 187.738ZM99.6957 201.887C99.8325 201.808 99.9506 201.7 100.042 201.571C100.342 201.114 100.567 200.612 100.71 200.084C101.111 198.766 101.536 196.926 102.034 195.08C102.484 193.361 103.04 191.672 103.697 190.021C104.004 189.235 104.367 188.472 104.784 187.738C104.949 188.572 105.024 189.421 105.009 190.27C105.01 192.103 104.763 193.927 104.274 195.693C103.825 197.528 102.997 199.248 101.845 200.745C101.439 201.286 100.893 201.706 100.267 201.96C100.085 202.029 99.8868 202.046 99.6957 202.009L99.5136 201.972L99.6957 201.887ZM76.2984 201.65C76.6303 201.561 76.9474 201.424 77.2397 201.243C77.5676 201.037 77.9259 200.909 78.3024 200.636C78.6789 200.363 79.0858 200.108 79.4744 199.756C79.863 199.403 80.2942 199.069 80.6889 198.644C81.0836 198.219 81.5026 197.819 81.9034 197.351C82.3042 196.883 82.705 196.434 83.1179 195.942C83.5308 195.45 83.8769 194.952 84.2655 194.473L85.3647 193.021C86.0509 192.05 86.7128 191.151 87.2897 190.368C88.4192 188.795 89.2753 187.744 89.2753 187.744C89.1271 188.85 88.8562 189.935 88.4677 190.981C88.0931 192.058 87.6342 193.103 87.0953 194.108C86.7735 194.643 86.4881 195.232 86.1116 195.772C85.7348 196.335 85.3294 196.878 84.8971 197.4C84.4777 197.931 84.0233 198.434 83.5368 198.906C83.0677 199.376 82.5621 199.808 82.0248 200.199C81.5274 200.583 80.9946 200.918 80.4338 201.201C79.9323 201.463 79.4079 201.678 78.8671 201.845C78.3989 201.988 77.9162 202.08 77.4279 202.118C77.0784 202.18 76.7208 202.18 76.3713 202.118C75.764 202.045 75.4543 201.984 75.4543 201.984C75.4543 201.984 75.7519 201.839 76.2984 201.65ZM196.072 198.948C195.86 199.191 195.55 199.555 195.107 199.992C193.845 201.282 192.448 202.432 190.941 203.423C188.576 204.948 186.03 206.172 183.362 207.067C179.902 208.232 176.328 209.024 172.699 209.429C168.71 209.921 164.356 209.897 159.813 210L145.488 210.212L130.161 210.34L114.373 210.383L98.5845 210.352L83.2575 210.243L68.9325 210.061C64.6283 210.089 60.3255 209.898 56.0406 209.49C52.4058 209.093 48.8257 208.297 45.3652 207.116C42.6992 206.208 40.1558 204.974 37.7928 203.442C36.2832 202.449 34.8881 201.292 33.6331 199.992C33.1898 199.555 32.8862 199.185 32.6737 198.942L32.3579 198.578L32.698 198.924C32.9227 199.155 33.2445 199.501 33.7121 199.914C35.0354 201.116 36.4781 202.18 38.0175 203.089C40.404 204.493 42.9558 205.595 45.6142 206.369C49.0576 207.36 52.5945 207.993 56.1682 208.257C60.0667 208.622 64.3782 208.458 68.9204 208.397L83.2454 208.215L98.5723 208.105L114.361 208.075L130.149 208.117L145.476 208.251L159.801 208.458C164.051 208.639 168.308 208.592 172.553 208.318C176.134 208.061 179.676 207.42 183.12 206.405C185.778 205.626 188.328 204.516 190.71 203.102C192.251 202.193 193.692 201.124 195.009 199.914C195.471 199.501 195.799 199.155 196.024 198.924L196.358 198.572L196.072 198.948Z" fill="#511414"/>
<path d="M39.9727 312.649V314.969L49.2636 317.294V382.367H58.5605V317.294L67.8575 314.969V312.649H39.9727Z" fill="#990202"/>
<path d="M81.7969 312.649V314.969L91.0939 317.294V382.367H100.391V317.294L109.682 314.969V312.649H81.7969Z" fill="#990202"/>
<path d="M121.305 312.649V314.969L130.602 317.294V382.367H139.899V317.294L149.189 314.969V312.649H121.305Z" fill="#990202"/>
<path d="M163.141 312.649V314.969L172.431 317.294V382.367H181.728V317.294L191.025 314.969V312.649H163.141Z" fill="#990202"/>
<path d="M191.032 384.693H39.9727V389.339H191.032V384.693Z" fill="#511414"/>
<path d="M62.0469 216.206V247.583H166.627V216.206H62.0469ZM82.9666 245.257H68.9999V223.177H82.9666V245.257ZM108.526 245.257H94.559V223.177H108.526V245.257ZM134.091 245.257H120.124V223.177H134.091V245.257ZM159.656 245.257H145.689V223.177H159.656V245.257Z" fill="#990202"/>
<path d="M85.2852 146.494V168.573H143.387V146.494H85.2852ZM101.553 166.247H89.9367V151.133H101.553V166.247ZM120.147 166.247H108.525V151.133H120.147V166.247ZM138.741 166.247H127.119V151.133H138.741V166.247Z" fill="#990202"/>
<path d="M102.719 88.3862V110.466H127.118V88.3862H102.719ZM120.147 108.14H109.69V93.056H120.147V108.14Z" fill="#990202"/>
<path d="M112.009 31.4502L108.523 53.5298H120.146L116.661 31.4502H112.009Z" fill="#990202"/>
<path d="M114.337 0.0800781L112.012 22.1596H116.663L114.337 0.0800781Z" fill="#990202"/>
<path d="M57.4258 249.902V261.525H171.297V249.902H57.4258ZM112.036 260.359H59.7515V259.199H112.036V260.359ZM112.036 256.874H59.7515V255.714H112.036V256.874ZM112.036 253.388H59.7515V252.228H112.036V253.388ZM167.811 260.359H115.521V259.199H167.811V260.359ZM167.811 256.874H115.521V255.714H167.811V256.874ZM167.811 253.388H115.521V252.228H167.811V253.388Z" fill="#990202"/>
<path d="M80.6406 170.887V181.35H148.045V170.887H80.6406ZM112.011 180.184H82.9664V179.024H112.011V180.184ZM112.011 176.698H82.9664V175.538H112.011V176.698ZM112.011 173.212H82.9664V172.053H112.011V173.212ZM144.547 180.184H115.497V179.024H144.547V180.184ZM144.547 176.698H115.497V175.538H144.547V176.698ZM144.547 173.212H115.497V172.053H144.547V173.212Z" fill="#990202"/>
<path d="M202.646 391.664H28.3477V396.31H202.646V391.664Z" fill="#511414"/>
<path d="M39.9727 297.547V310.299H191.02V297.547H39.9727ZM84.1439 305.678H45.7961V302.192H84.1439V305.678ZM138.76 305.678H92.2811V302.192H138.76V305.678ZM185.239 305.678H146.873V302.192H185.22L185.239 305.678Z" fill="#990202"/>
<path d="M117.823 26.8049C117.823 27.4943 117.618 28.1682 117.235 28.7414C116.852 29.3146 116.308 29.7614 115.671 30.0252C115.034 30.289 114.333 30.3581 113.657 30.2236C112.981 30.0891 112.36 29.7571 111.872 29.2696C111.385 28.7822 111.053 28.1611 110.919 27.4849C110.784 26.8088 110.853 26.108 111.117 25.4711C111.381 24.8341 111.827 24.2898 112.401 23.9068C112.974 23.5238 113.648 23.3193 114.337 23.3193C115.262 23.3193 116.148 23.6866 116.802 24.3403C117.456 24.9939 117.823 25.8805 117.823 26.8049Z" fill="#990202"/>
</svg>
