<svg width="23" height="23" viewBox="0 0 23 23" fill="none" xmlns="http://www.w3.org/2000/svg">
<path d="M21.2154 12.1789L9.26113 0.223719C9.11755 0.0804567 8.923 0 8.72016 0C8.51733 0 8.32278 0.0804567 8.17919 0.223719C8.03601 0.367444 7.95562 0.562048 7.95562 0.76492C7.95562 0.967791 8.03601 1.1624 8.17919 1.30612L20.1344 13.2608C21.9151 15.0406 21.9151 17.9378 20.1344 19.7175C18.3546 21.4973 15.4584 21.4973 13.6777 19.7171L2.43552 8.47536C1.22845 7.2683 1.22845 5.30268 2.43552 4.09608C3.64166 2.88901 5.60774 2.88947 6.81481 4.09654L16.5307 13.8124C16.6742 13.9559 16.7881 14.1263 16.8658 14.3139C16.9435 14.5014 16.9835 14.7024 16.9835 14.9054C16.9836 15.1084 16.9436 15.3095 16.8659 15.497C16.7883 15.6846 16.6744 15.855 16.5309 15.9986C16.3874 16.1421 16.217 16.256 16.0294 16.3337C15.8419 16.4114 15.6408 16.4515 15.4378 16.4515C15.2348 16.4515 15.0338 16.4115 14.8462 16.3339C14.6587 16.2562 14.4883 16.1423 14.3447 15.9988L5.84051 7.49646C5.69577 7.35893 5.50303 7.28338 5.30338 7.28595C5.10373 7.28851 4.91299 7.36898 4.77184 7.5102C4.63069 7.65141 4.5503 7.84218 4.54782 8.04183C4.54534 8.24148 4.62096 8.43419 4.75856 8.57887L13.2618 17.0821C14.4611 18.2818 16.4143 18.2832 17.6135 17.084C18.1898 16.5059 18.5134 15.723 18.5134 14.9068C18.5134 14.0905 18.1898 13.3076 17.6135 12.7295L7.89813 3.01321C6.09351 1.2086 3.15681 1.20906 1.35266 3.01321C-0.451039 4.81783 -0.451039 7.75407 1.35358 9.55823L12.5944 20.7999C14.9721 23.1773 18.8394 23.1777 21.2172 20.8004C23.5946 18.4231 23.5936 14.5567 21.2154 12.1789Z" fill="#EF172F"/>
</svg>
