<svg width="220" height="33" viewBox="0 0 220 33" fill="none" xmlns="http://www.w3.org/2000/svg">
<path d="M0.24707 32.194V1.13781H6.79179V14.8317H7.18781L18.3805 1.13781H26.2384L14.733 15.0401L26.3843 32.194H18.5056L10.0225 19.438L6.79179 23.3773V32.194H0.24707Z" fill="#2E2E2E"/>
<path d="M48.8948 1.13781H55.4395V21.2722C55.4395 23.5371 54.9045 25.5242 53.8346 27.2333C52.7646 28.9285 51.2639 30.2486 49.3325 31.1935C47.401 32.1384 45.15 32.6108 42.5793 32.6108C39.9948 32.6108 37.7368 32.1384 35.8053 31.1935C33.8878 30.2486 32.394 28.9285 31.3241 27.2333C30.2541 25.5242 29.7191 23.5371 29.7191 21.2722V1.13781H36.2639V20.7303C36.2639 22.5089 36.8405 23.9748 37.9938 25.1282C39.1472 26.2676 40.6756 26.8373 42.5793 26.8373C44.483 26.8373 46.0115 26.2676 47.1648 25.1282C48.3181 23.9748 48.8948 22.5089 48.8948 20.7303V1.13781Z" fill="#2E2E2E"/>
<path d="M60.8587 32.194V1.13781H73.0727C76.6021 1.13781 79.3395 2.06185 81.2849 3.90993C83.2441 5.75802 84.2237 8.2175 84.2237 11.2884C84.2237 13.4144 83.7513 15.2347 82.8064 16.7493C81.8615 18.25 80.5067 19.3755 78.742 20.1258L85.3284 32.194H78.075L72.1973 21.1888H67.4034V32.194H60.8587ZM67.4034 15.9155H71.8429C75.5947 15.9155 77.4706 14.3731 77.4706 11.2884C77.4706 9.74599 77.0051 8.56488 76.0741 7.74506C75.1431 6.92523 73.7258 6.51532 71.8221 6.51532H67.4034V15.9155Z" fill="#2E2E2E"/>
<path d="M94.2492 32.194H87.2043L97.9385 1.13781H106.38L117.093 32.194H110.069L107.756 25.1073H96.542L94.2492 32.194ZM98.2094 19.9799H106.088L102.274 8.22445H102.024L98.2094 19.9799Z" fill="#2E2E2E"/>
<path d="M174.474 32.6108C171.723 32.6108 169.249 31.9855 167.054 30.7349C164.859 29.4844 163.122 27.671 161.843 25.2949C160.565 22.9188 159.926 20.0494 159.926 16.6867C159.926 13.2963 160.565 10.413 161.843 8.03686C163.122 5.66075 164.859 3.8474 167.054 2.59682C169.249 1.34624 171.723 0.720947 174.474 0.720947C177.225 0.720947 179.692 1.34624 181.873 2.59682C184.069 3.8474 185.806 5.66075 187.084 8.03686C188.363 10.413 189.002 13.2963 189.002 16.6867C189.002 20.0772 188.363 22.9605 187.084 25.3366C185.806 27.6988 184.069 29.5052 181.873 30.7558C179.692 31.9925 177.225 32.6108 174.474 32.6108ZM166.575 16.6867C166.575 19.966 167.29 22.4741 168.721 24.2111C170.167 25.948 172.084 26.8164 174.474 26.8164C176.85 26.8164 178.754 25.948 180.185 24.2111C181.63 22.4741 182.353 19.966 182.353 16.6867C182.353 13.3935 181.63 10.8785 180.185 9.14154C178.754 7.39072 176.85 6.51532 174.474 6.51532C172.084 6.51532 170.167 7.39072 168.721 9.14154C167.29 10.8785 166.575 13.3935 166.575 16.6867Z" fill="#2E2E2E"/>
<path d="M193.879 32.194V1.13781H206.093C209.622 1.13781 212.36 2.06185 214.305 3.90993C216.264 5.75802 217.244 8.2175 217.244 11.2884C217.244 13.4144 216.772 15.2347 215.827 16.7493C214.882 18.25 213.527 19.3755 211.762 20.1258L218.349 32.194H211.095L205.218 21.1888H200.424V32.194H193.879ZM200.424 15.9155H204.863C208.615 15.9155 210.491 14.3731 210.491 11.2884C210.491 9.74599 210.025 8.56488 209.094 7.74506C208.163 6.92523 206.746 6.51532 204.842 6.51532H200.424V15.9155Z" fill="#2E2E2E"/>
<path d="M124.435 2.47142H153.863M121.492 30.7226H133.264M142.092 30.7226H153.863M140.621 13.9485V32.194M149.155 7.17995H126.201M136.206 13.6542H126.201M149.155 13.6542H139.149M147.683 13.6542V6.00282M127.672 13.6542V6.00282M134.735 13.9485V32.194M122.964 32.194L122.964 1M152.392 29.2512V1" stroke="#FF0000" stroke-width="2.94283"/>
</svg>
