<svg width="36" height="36" viewBox="0 0 36 36" fill="none" xmlns="http://www.w3.org/2000/svg">
<rect width="36" height="36" rx="8" fill="#2BA1DB"/>
<path d="M27.035 7.90359C23.7558 9.32034 9.695 15.3958 5.81001 17.0516C3.20456 18.1122 4.72982 19.1067 4.72982 19.1067C4.72982 19.1067 6.95389 19.9021 8.86055 20.4987C10.7669 21.0953 11.7837 20.4325 11.7837 20.4325L20.7439 14.135C23.9213 11.8811 23.1588 13.7371 22.3961 14.5328C20.7439 16.2565 18.0113 18.9741 15.7236 21.1617C14.7068 22.0898 15.2151 22.8852 15.6602 23.283C17.3123 24.7414 21.8244 27.7245 22.0784 27.9233C23.4208 28.9147 26.0614 30.3417 26.4631 27.3267L28.0518 16.9193C28.5603 13.406 29.0685 10.1577 29.132 9.22971C29.3228 6.97558 27.035 7.90359 27.035 7.90359Z" fill="white"/>
</svg>
