<svg width="81" height="81" viewBox="0 0 81 81" fill="none" xmlns="http://www.w3.org/2000/svg">
<path d="M40.6751 80.3945C18.6196 80.3945 0.675781 62.4502 0.675781 40.3942C0.675781 18.3382 18.6196 0.394531 40.6751 0.394531C62.7314 0.394531 80.6758 18.3382 80.6758 40.3942C80.6758 62.4502 62.7314 80.3945 40.6751 80.3945ZM40.6751 6.76046C22.1298 6.76046 7.04176 21.8483 7.04176 40.3942C7.04176 58.9407 22.1298 74.0286 40.6751 74.0286C59.2212 74.0286 74.3098 58.9407 74.3098 40.3942C74.3098 21.8483 59.2212 6.76046 40.6751 6.76046Z" fill="#EF172F"/>
<path d="M20.1541 36.8249L29.4 44.6627L26.5245 56.4466C25.9598 58.6454 28.3853 60.4495 30.3575 59.2094L40.6761 52.8372L50.9941 59.2088C52.9115 60.3922 55.335 58.6448 54.8277 56.446L51.9521 44.662L61.1987 36.8243C62.9462 35.3589 62.0441 32.4834 59.7326 32.314L47.6099 31.4113L43.0436 20.192C42.1976 18.1059 39.21 18.1059 38.3073 20.192L33.7403 31.4113L21.6182 32.314C19.308 32.5407 18.4053 35.3595 20.1541 36.8249Z" fill="#EF172F"/>
</svg>
