<svg width="80" height="80" viewBox="0 0 80 80" fill="none" xmlns="http://www.w3.org/2000/svg">
<g clip-path="url(#clip0_2068_1459)">
<path d="M18.3407 71.2164C24.3124 75.3163 31.4853 78.2603 39.6614 79.9656C39.8837 80.0114 40.1148 80.0114 40.3371 79.9656C48.5132 78.2603 55.6861 75.3177 61.6578 71.2177C73.1427 63.3324 80 50.5658 80 37.0632V8.23268C80 8.05569 79.9606 7.88048 79.8842 7.71726C79.8078 7.55404 79.6959 7.40609 79.555 7.28202C79.2654 7.03736 78.8828 6.90055 78.4848 6.89935C53.3254 7.32202 40.9355 0.287386 40.8149 0.21672C40.573 0.0753013 40.2904 0 40.0015 0C39.7126 0 39.43 0.0753013 39.188 0.21672C39.0645 0.287386 26.6597 7.33402 1.51525 6.90069C1.1175 6.90321 0.735405 7.03983 0.445048 7.28335C0.304209 7.40746 0.192331 7.55543 0.115926 7.71864C0.0395209 7.88185 0.000114588 8.05703 0 8.23401V37.0645C0 50.5658 6.85583 63.3337 18.3422 71.2177L18.3407 71.2164ZM2.97542 9.58201C24.7798 9.66334 36.8601 4.46337 39.9993 2.88337C43.1027 4.44603 54.9329 9.58467 76.2937 9.58334L77.0231 9.58201V37.0619C77.0231 49.7391 70.6019 61.7164 59.8463 69.099C54.2959 72.9097 47.6201 75.667 39.9993 77.295C32.3784 75.667 25.7041 72.9097 20.1522 69.099C9.39662 61.7164 2.97542 49.7391 2.97542 37.0619V9.58201Z" fill="#EF172F"/>
<path d="M22.8686 65.9244C27.5677 69.1524 33.203 71.5617 39.6167 73.0857C39.8665 73.1443 40.129 73.1443 40.3788 73.0857C46.7926 71.5617 52.4279 69.1524 57.1284 65.9244C66.7885 59.2924 72.5548 48.5031 72.5548 37.0619V14.8153C72.5547 14.4719 72.4068 14.1417 72.1417 13.8935C71.8766 13.6454 71.5148 13.4984 71.1318 13.4833C55.6012 12.8673 45.3443 9.54334 40.6125 7.61802C40.4191 7.53963 40.2093 7.49908 39.997 7.49908C39.7848 7.49908 39.5749 7.53963 39.3815 7.61802C34.6497 9.54467 24.3928 12.8673 8.86226 13.4833C8.47922 13.4984 8.11746 13.6454 7.85237 13.8935C7.58728 14.1417 7.43931 14.4719 7.4393 14.8153V37.0632C7.4393 48.5058 13.2071 59.2951 22.8671 65.9257L22.8686 65.9244ZM10.4177 16.082C25.0328 15.3366 34.9906 12.258 39.9993 10.2913C45.0079 12.258 54.9657 15.3366 69.5808 16.082V37.0619C69.5808 47.6791 64.2492 57.6778 55.3199 63.8084C51.0257 66.7564 45.8742 68.979 40.0007 70.4164C34.1273 68.979 28.9758 66.7577 24.6816 63.8084C15.7508 57.6791 10.4192 47.6805 10.4192 37.0619L10.4177 16.082Z" fill="#EF172F"/>
<path d="M36.4701 52.4325C36.8646 52.4325 37.2441 52.2925 37.5225 52.0418L60.4015 31.5459C60.6806 31.2959 60.8373 30.9568 60.8373 30.6032C60.8373 30.2497 60.6806 29.9106 60.4015 29.6606L54.0905 24.0086C53.9524 23.8847 53.7883 23.7864 53.6077 23.7193C53.4272 23.6522 53.2336 23.6177 53.0381 23.6177C52.8426 23.6177 52.6491 23.6522 52.4685 23.7193C52.2879 23.7864 52.1239 23.8847 51.9858 24.0086L36.4701 37.9085L28.0112 30.3326C27.7267 30.092 27.3502 29.9579 26.9589 29.9579C26.5676 29.9579 26.1911 30.092 25.9066 30.3326L19.597 35.9845C19.4587 36.1083 19.3489 36.2552 19.274 36.4169C19.1991 36.5787 19.1606 36.7521 19.1606 36.9272C19.1606 37.1023 19.1991 37.2757 19.274 37.4375C19.3489 37.5992 19.4587 37.7461 19.597 37.8699L35.4163 52.0405C35.6954 52.2905 36.0739 52.431 36.4686 52.4311L36.4701 52.4325ZM26.9589 33.1606L35.4178 40.7365C35.5559 40.8604 35.7199 40.9588 35.9005 41.0258C36.0811 41.0929 36.2746 41.1274 36.4701 41.1274C36.6656 41.1274 36.8592 41.0929 37.0398 41.0258C37.2203 40.9588 37.3844 40.8604 37.5225 40.7365L53.0381 26.8366L57.2445 30.6032L36.4701 49.2138L22.7555 36.9285L26.9604 33.1619L26.9589 33.1606Z" fill="#EF172F"/>
</g>
<defs>
<clipPath id="clip0_2068_1459">
<rect width="80" height="80" fill="white"/>
</clipPath>
</defs>
</svg>
