<svg width="30" height="30" viewBox="0 0 30 30" fill="none" xmlns="http://www.w3.org/2000/svg">
<path d="M12.0295 26.8279C17.6539 26.8279 22.2134 22.2684 22.2134 16.644C22.2134 11.0197 17.6539 6.46021 12.0295 6.46021C6.40517 6.46021 1.8457 11.0197 1.8457 16.644C1.8457 22.2684 6.40517 26.8279 12.0295 26.8279Z" fill="#B0EF8F"/>
<path d="M12.1449 24.5155L12.0158 24.2954C10.0427 20.9337 4.79949 13.7995 4.74653 13.7279L4.6709 13.6251L6.45723 11.8598L12.1118 15.8082C15.672 11.1882 18.9935 8.01503 21.1601 6.16201C23.5301 4.13499 25.0729 3.20182 25.0884 3.19288L25.1235 3.17188H28.1536L27.8642 3.42964C20.4202 10.06 12.3517 24.1521 12.2713 24.2937L12.1449 24.5155Z" fill="#009045"/>
</svg>
