<svg width="42" height="33" viewBox="0 0 42 33" fill="none" xmlns="http://www.w3.org/2000/svg">
<path d="M2.08163 12.4898C2.08163 9.48707 2.08605 7.44444 2.29171 5.91482C2.48931 4.44507 2.83771 3.76434 3.30102 3.30102C3.76434 2.83771 4.44507 2.48931 5.91482 2.29171C7.44444 2.08605 9.48707 2.08163 12.4898 2.08163H29.5102C32.5129 2.08163 34.5556 2.08605 36.0852 2.29171C37.5549 2.48931 38.2357 2.83771 38.699 3.30103C39.1623 3.76434 39.5107 4.44508 39.7083 5.91482C39.9139 7.44444 39.9184 9.48707 39.9184 12.4898V20.5102C39.9184 23.5129 39.9139 25.5556 39.7083 27.0852C39.5107 28.5549 39.1623 29.2357 38.699 29.699C38.2357 30.1623 37.5549 30.5107 36.0852 30.7083C34.5556 30.9139 32.5129 30.9184 29.5102 30.9184H12.4898C9.48707 30.9184 7.44444 30.9139 5.91482 30.7083C4.44507 30.5107 3.76434 30.1623 3.30102 29.699C2.83771 29.2357 2.48931 28.5549 2.29171 27.0852C2.08605 25.5556 2.08163 23.5129 2.08163 20.5102V12.4898Z" stroke="#82AECA" stroke-width="4.16327"/>
<path d="M4 4L15.3469 12.94C17.8203 14.8887 19.057 15.8631 20.5 15.8631C21.943 15.8631 23.1797 14.8887 25.6531 12.94L37 4" stroke="#82AECA" stroke-width="4.16327"/>
</svg>
