<svg width="36" height="36" viewBox="0 0 36 36" fill="none" xmlns="http://www.w3.org/2000/svg">
<rect width="36" height="36" rx="8" fill="#745EF5"/>
<path d="M27.2935 8.42041C26.6659 7.85253 24.1253 6.04179 18.461 6.01758C18.461 6.01758 11.7835 5.62441 8.53118 8.55642C6.72215 10.333 6.08456 12.9398 6.01535 16.1679C5.94613 19.3961 5.86211 25.4444 11.7983 27.0853H11.8032L11.7983 29.5901C11.7983 29.5901 11.7588 30.6046 12.4408 30.8085C13.2613 31.0609 13.7457 30.2891 14.5315 29.459C14.9616 29.0027 15.5547 28.3328 16.0045 27.823C20.0673 28.1581 23.1862 27.3911 23.542 27.2795C24.3626 27.0173 29.0037 26.4348 29.755 20.3863C30.5359 14.1437 29.3793 10.202 27.2935 8.42041ZM27.9806 19.93C27.3429 24.9783 23.5816 25.2988 22.8896 25.5173C22.593 25.6095 19.8499 26.2794 16.4048 26.061C16.4048 26.061 13.8346 29.1046 13.0339 29.8959C12.772 30.1531 12.4853 30.1289 12.4903 29.6191C12.4903 29.2843 12.51 25.4591 12.51 25.4591C12.5051 25.4591 12.5051 25.4591 12.51 25.4591C7.47835 24.0901 7.77492 18.9397 7.82928 16.2455C7.88364 13.5515 8.40265 11.3427 9.93487 9.85737C12.688 7.40591 18.3572 7.77001 18.3572 7.77001C23.1466 7.78941 25.4401 9.20681 25.9739 9.68255C27.7383 11.168 28.638 14.7214 27.9806 19.93ZM21.1102 16.0077C21.13 16.4252 20.4924 16.4543 20.4726 16.0368C20.4182 14.9689 19.9091 14.4495 18.8613 14.3913C18.4362 14.3669 18.4758 13.7408 18.8959 13.7651C20.275 13.8379 21.0411 14.6145 21.1102 16.0077ZM22.1136 16.5562C22.163 14.498 20.8533 12.8864 18.3671 12.7068C17.9469 12.6777 17.9914 12.0514 18.4116 12.0806C21.2784 12.2845 22.8056 14.2214 22.7512 16.5708C22.7463 16.9882 22.1037 16.9689 22.1136 16.5562ZM24.4367 17.2067C24.4416 17.6242 23.799 17.629 23.799 17.2116C23.7694 13.2553 21.0856 11.1 17.8283 11.0757C17.4081 11.0709 17.4081 10.4496 17.8283 10.4496C21.4711 10.4738 24.4021 12.9446 24.4367 17.2067ZM23.8781 21.9687V21.9785C23.3443 22.9008 22.3459 23.9203 21.3178 23.595L21.3079 23.5804C20.265 23.2941 17.8086 22.0514 16.2566 20.8377C15.4558 20.2164 14.7243 19.4834 14.1608 18.7795C13.6518 18.1533 13.1378 17.4105 12.6385 16.5174C11.5858 14.6485 11.3535 13.8135 11.3535 13.8135C11.0223 12.8039 12.0553 11.8232 12.9993 11.299H13.0093C13.464 11.066 13.8989 11.1437 14.1905 11.4883C14.1905 11.4883 14.8035 12.2066 15.0654 12.5611C15.3125 12.8912 15.6437 13.4203 15.8167 13.7164C16.1182 14.2455 15.9303 14.7843 15.6338 15.0076L15.0407 15.4736C14.7392 15.7114 14.7787 16.1532 14.7787 16.1532C14.7787 16.1532 15.6585 19.4202 18.9454 20.2454C18.9454 20.2454 19.3952 20.2843 19.6373 19.9882L20.1119 19.4056C20.3392 19.1144 20.8879 18.93 21.4266 19.2261C22.1532 19.6289 23.0774 20.2552 23.6904 20.8232C24.0363 21.0998 24.1154 21.5222 23.8781 21.9687Z" fill="white"/>
</svg>
