<svg width="19" height="20" viewBox="0 0 19 20" fill="none" xmlns="http://www.w3.org/2000/svg">
<path d="M16.8573 1.94745C16.3605 1.49054 14.3492 0.0336263 9.86493 0.014148C9.86493 0.014148 4.57857 -0.3022 2.00385 2.05689C0.571698 3.48632 0.0669455 5.58376 0.0121493 8.18106C-0.0426469 10.7785 -0.109161 15.6449 4.59029 16.9652H4.59417L4.59029 18.9805C4.59029 18.9805 4.55902 19.7968 5.09896 19.9609C5.74855 20.164 6.13199 19.543 6.75413 18.8751C7.09458 18.5079 7.5641 17.9689 7.92018 17.5588C11.1366 17.8283 13.6057 17.2112 13.8874 17.1214C14.537 16.9105 18.2112 16.4418 18.806 11.5752C19.4242 6.55237 18.5086 3.38089 16.8573 1.94745ZM17.4013 11.2081C16.8965 15.2699 13.9187 15.5278 13.3709 15.7035C13.1361 15.7777 10.9645 16.3168 8.23716 16.141C8.23716 16.141 6.20242 18.5899 5.56852 19.2266C5.36114 19.4335 5.1342 19.414 5.13812 19.0039C5.13812 18.7345 5.15376 15.6567 5.15376 15.6567C5.14984 15.6567 5.14984 15.6567 5.15376 15.6567C1.17036 14.5552 1.40514 10.4112 1.44818 8.24354C1.49121 6.07589 1.9021 4.29876 3.1151 3.10363C5.29463 1.13119 9.78278 1.42415 9.78278 1.42415C13.5744 1.43976 15.39 2.58019 15.8126 2.96298C17.2095 4.15815 17.9217 7.01719 17.4013 11.2081ZM11.9623 8.05219C11.9779 8.38806 11.4731 8.41154 11.4575 8.07559C11.4144 7.21632 11.0114 6.79845 10.1819 6.75159C9.84533 6.73202 9.87665 6.22819 10.2092 6.24776C11.301 6.30632 11.9075 6.93124 11.9623 8.05219ZM12.7566 8.4935C12.7957 6.83745 11.7588 5.54076 9.79057 5.39628C9.45796 5.37285 9.4932 4.86898 9.82586 4.89241C12.0954 5.0565 13.3044 6.61489 13.2614 8.50524C13.2575 8.84111 12.7487 8.82554 12.7566 8.4935ZM14.5957 9.01689C14.5996 9.3528 14.0909 9.35667 14.0909 9.0208C14.0674 5.83763 11.9427 4.10345 9.36405 4.08393C9.03144 4.08002 9.03144 3.58011 9.36405 3.58011C12.2479 3.59963 14.5683 5.58763 14.5957 9.01689ZM14.1535 12.8484V12.8563C13.7309 13.5984 12.9405 14.4186 12.1266 14.1569L12.1188 14.1452C11.2931 13.9148 9.34846 12.9149 8.11977 11.9384C7.48587 11.4385 6.90672 10.8487 6.46064 10.2824C6.05764 9.7785 5.65072 9.18089 5.25551 8.46228C4.42207 6.95854 4.23817 6.28676 4.23817 6.28676C3.97599 5.47437 4.7938 4.68537 5.54112 4.26358H5.54901C5.90897 4.07606 6.2533 4.13858 6.48416 4.41585C6.48416 4.41585 6.9694 4.99385 7.17673 5.27906C7.3724 5.54463 7.63457 5.97032 7.77152 6.20859C8.01022 6.63428 7.86147 7.06785 7.62673 7.24746L7.15718 7.62246C6.91852 7.8138 6.9498 8.16924 6.9498 8.16924C6.9498 8.16924 7.64629 10.7978 10.2484 11.4618C10.2484 11.4618 10.6045 11.4931 10.7962 11.2548L11.1719 10.7862C11.3518 10.5518 11.7862 10.4034 12.2127 10.6417C12.7879 10.9658 13.5196 11.4697 14.0049 11.9267C14.2787 12.1493 14.3413 12.4892 14.1535 12.8484Z" fill="#745EF5"/>
</svg>
