<svg width="80" height="80" viewBox="0 0 80 80" fill="none" xmlns="http://www.w3.org/2000/svg">
<path d="M46.4392 27.5814C46.5897 27.2805 46.5575 26.9259 46.3531 26.668L40.6955 19.253C40.5342 19.0381 40.276 18.9092 40.0071 18.9092C39.7382 18.9092 39.4801 19.0381 39.308 19.253L33.6505 26.668C33.4461 26.9259 33.4246 27.2913 33.5644 27.5814C33.715 27.8824 34.0161 28.065 34.3496 28.065H35.8016V35.6627C39.4801 37.4789 42.4487 40.4986 44.2019 44.2061V28.065H45.654C45.9874 28.065 46.2886 27.8716 46.4392 27.5814ZM54.0543 33.3952C53.7961 33.191 53.4304 33.1696 53.1401 33.3092C52.8389 33.4597 52.6561 33.7605 52.6561 34.0937V35.5445H52.2366C50.0531 35.5445 47.9235 35.9743 45.9551 36.791V46.5703C47.3212 44.9583 49.354 43.9374 51.6127 43.9374H52.6561V45.3882C52.6561 45.7213 52.8497 46.0222 53.1401 46.1727C53.4412 46.3231 53.7961 46.2909 54.0543 46.0867L61.4758 40.4341C61.5823 40.3537 61.6688 40.2498 61.7285 40.1305C61.7882 40.0112 61.8195 39.8797 61.82 39.7463C61.82 39.4669 61.6909 39.2197 61.4758 39.0478L54.0543 33.3952Z" fill="#EF172F"/>
<path d="M18.5386 40.4234L25.9601 46.0759C26.2182 46.2801 26.5839 46.3123 26.8743 46.1619C27.1755 46.0115 27.3583 45.7106 27.3583 45.3774V43.9267H28.4017C32.4889 43.9267 35.8017 47.2473 35.8017 51.3202V59.6916C35.8012 59.8061 35.8234 59.9195 35.867 60.0253C35.9106 60.1311 35.9748 60.2273 36.0558 60.3082C36.1368 60.3891 36.233 60.4532 36.3389 60.4968C36.4448 60.5404 36.5583 60.5625 36.6729 60.5621H43.3307C43.4453 60.5625 43.5588 60.5404 43.6647 60.4968C43.7706 60.4532 43.8668 60.3891 43.9478 60.3082C44.0288 60.2273 44.093 60.1311 44.1366 60.0253C44.1802 59.9195 44.2024 59.8061 44.2019 59.6916V51.9543C44.2019 42.9058 36.8342 35.5445 27.7778 35.5445H27.3476V34.0938C27.3476 33.7607 27.1648 33.4598 26.8636 33.3093C26.5624 33.1696 26.2075 33.1911 25.9493 33.3953L18.5277 39.0478C18.3126 39.209 18.1836 39.4669 18.1836 39.7463C18.1943 40.015 18.3126 40.2622 18.5386 40.4234Z" fill="#EF172F"/>
</svg>
