<svg width="220" height="33" viewBox="0 0 220 33" fill="none" xmlns="http://www.w3.org/2000/svg">
<path d="M0.24707 32.1941V1.13793H6.79179V14.8318H7.18781L18.3805 1.13793H26.2384L14.733 15.0402L26.3843 32.1941H18.5056L10.0225 19.4381L6.79179 23.3775V32.1941H0.24707Z" fill="white"/>
<path d="M48.8948 1.13793H55.4395V21.2723C55.4395 23.5373 54.9045 25.5243 53.8346 27.2334C52.7646 28.9287 51.2639 30.2487 49.3325 31.1936C47.401 32.1385 45.15 32.6109 42.5793 32.6109C39.9948 32.6109 37.7368 32.1385 35.8053 31.1936C33.8878 30.2487 32.394 28.9287 31.3241 27.2334C30.2541 25.5243 29.7191 23.5373 29.7191 21.2723V1.13793H36.2639V20.7304C36.2639 22.509 36.8405 23.975 37.9938 25.1283C39.1472 26.2677 40.6756 26.8374 42.5793 26.8374C44.483 26.8374 46.0115 26.2677 47.1648 25.1283C48.3181 23.975 48.8948 22.509 48.8948 20.7304V1.13793Z" fill="white"/>
<path d="M60.8587 32.1941V1.13793H73.0727C76.6021 1.13793 79.3395 2.06197 81.2849 3.91006C83.2441 5.75814 84.2237 8.21762 84.2237 11.2885C84.2237 13.4145 83.7513 15.2348 82.8064 16.7494C81.8615 18.2501 80.5067 19.3756 78.742 20.1259L85.3284 32.1941H78.075L72.1973 21.1889H67.4034V32.1941H60.8587ZM67.4034 15.9157H71.8429C75.5947 15.9157 77.4706 14.3733 77.4706 11.2885C77.4706 9.74611 77.0051 8.565 76.0741 7.74518C75.1431 6.92535 73.7258 6.51544 71.8221 6.51544H67.4034V15.9157Z" fill="white"/>
<path d="M94.2492 32.1941H87.2043L97.9385 1.13793H106.38L117.093 32.1941H110.069L107.756 25.1074H96.542L94.2492 32.1941ZM98.2094 19.98H106.088L102.274 8.22457H102.024L98.2094 19.98Z" fill="white"/>
<path d="M174.474 32.6109C171.723 32.6109 169.249 31.9856 167.054 30.7351C164.859 29.4845 163.122 27.6711 161.843 25.295C160.565 22.9189 159.926 20.0495 159.926 16.6868C159.926 13.2964 160.565 10.4131 161.843 8.03698C163.122 5.66087 164.859 3.84753 167.054 2.59694C169.249 1.34636 171.723 0.721069 174.474 0.721069C177.225 0.721069 179.692 1.34636 181.873 2.59694C184.069 3.84753 185.806 5.66087 187.084 8.03698C188.363 10.4131 189.002 13.2964 189.002 16.6868C189.002 20.0773 188.363 22.9606 187.084 25.3367C185.806 27.6989 184.069 29.5053 181.873 30.7559C179.692 31.9926 177.225 32.6109 174.474 32.6109ZM166.575 16.6868C166.575 19.9662 167.29 22.4743 168.721 24.2112C170.167 25.9481 172.084 26.8166 174.474 26.8166C176.85 26.8166 178.754 25.9481 180.185 24.2112C181.63 22.4743 182.353 19.9662 182.353 16.6868C182.353 13.3936 181.63 10.8786 180.185 9.14166C178.754 7.39085 176.85 6.51544 174.474 6.51544C172.084 6.51544 170.167 7.39085 168.721 9.14166C167.29 10.8786 166.575 13.3936 166.575 16.6868Z" fill="white"/>
<path d="M193.879 32.1941V1.13793H206.093C209.622 1.13793 212.36 2.06197 214.305 3.91006C216.264 5.75814 217.244 8.21762 217.244 11.2885C217.244 13.4145 216.772 15.2348 215.827 16.7494C214.882 18.2501 213.527 19.3756 211.762 20.1259L218.349 32.1941H211.095L205.218 21.1889H200.424V32.1941H193.879ZM200.424 15.9157H204.863C208.615 15.9157 210.491 14.3733 210.491 11.2885C210.491 9.74611 210.025 8.565 209.094 7.74518C208.163 6.92535 206.746 6.51544 204.842 6.51544H200.424V15.9157Z" fill="white"/>
<path d="M124.435 2.47142H153.863M121.492 30.7226H133.264M142.092 30.7226H153.863M140.621 13.9485V32.194M149.155 7.17995H126.201M136.206 13.6542H126.201M149.155 13.6542H139.149M147.683 13.6542V6.00282M127.672 13.6542V6.00282M134.735 13.9485V32.194M122.964 32.194L122.964 1M152.392 29.2512V1" stroke="#FF0000" stroke-width="2.94283"/>
</svg>
