<svg width="80" height="80" viewBox="0 0 80 80" fill="none" xmlns="http://www.w3.org/2000/svg">
<mask id="mask0_2068_1692" style="mask-type:luminance" maskUnits="userSpaceOnUse" x="0" y="0" width="80" height="80">
<path d="M79.3555 79.3555V0.644531H0.644533V79.3555H79.3555Z" fill="white" stroke="white" stroke-width="1.28907"/>
</mask>
<g mask="url(#mask0_2068_1692)">
<path d="M17.3069 58.0059H2.35156C2.04491 58.0059 1.75081 57.884 1.53397 57.6672C1.31713 57.4504 1.19531 57.1563 1.19531 56.8496V23.151C1.19529 22.9992 1.22518 22.8488 1.28328 22.7085C1.34138 22.5682 1.42654 22.4407 1.53391 22.3333C1.64128 22.2259 1.76876 22.1408 1.90905 22.0826C2.04934 22.0245 2.19971 21.9946 2.35156 21.9946H53.318" stroke="#EF172F" stroke-width="3" stroke-miterlimit="10" stroke-linecap="round" stroke-linejoin="round"/>
<path d="M38.9805 58.0059H77.6469C77.9535 58.0059 78.2476 57.884 78.4645 57.6672C78.6813 57.4504 78.8031 57.1563 78.8031 56.8496V23.151C78.8031 22.9992 78.7733 22.8488 78.7152 22.7085C78.6571 22.5682 78.5719 22.4407 78.4645 22.3333C78.3571 22.2259 78.2297 22.1408 78.0894 22.0826C77.9491 22.0245 77.7987 21.9946 77.6469 21.9946H62.6916" stroke="#EF172F" stroke-width="3" stroke-miterlimit="10" stroke-linecap="round" stroke-linejoin="round"/>
<path d="M26.584 58.0059H33.9866" stroke="#EF172F" stroke-width="3" stroke-miterlimit="10" stroke-linecap="round" stroke-linejoin="round"/>
<path d="M31.3691 53.3184H68.4537C68.4537 50.1905 70.9891 47.6551 74.1169 47.6551V32.3454C70.9891 32.3454 68.4537 29.8099 68.4537 26.6821H58.0054" stroke="#EF172F" stroke-width="3" stroke-miterlimit="10" stroke-linecap="round" stroke-linejoin="round"/>
<path d="M48.6306 26.6821H11.5461C11.5461 29.8099 9.01062 32.3454 5.88281 32.3454V47.6551C9.01062 47.6551 11.5461 50.1905 11.5461 53.3184H21.9944" stroke="#EF172F" stroke-width="3" stroke-miterlimit="10" stroke-linecap="round" stroke-linejoin="round"/>
<path d="M51.3477 33.0265C52.5966 35.0548 53.3173 37.4434 53.3173 40.0002C53.3173 47.3555 47.3545 53.3184 39.9991 53.3184C37.4423 53.3184 35.0538 52.5977 33.0254 51.3487" stroke="#EF172F" stroke-width="3" stroke-miterlimit="10" stroke-linecap="round" stroke-linejoin="round"/>
<path d="M28.651 46.9736C27.402 44.9454 26.6816 42.5568 26.6816 40C26.6816 32.6446 32.6443 26.6819 39.9996 26.6819C42.5563 26.6819 44.9449 27.4024 46.9734 28.6514" stroke="#EF172F" stroke-width="3" stroke-miterlimit="10" stroke-linecap="round" stroke-linejoin="round"/>
<path d="M5.73242 21.9151C12.2287 9.63148 25.1365 1.26149 39.9991 1.26149C54.8937 1.26149 67.8248 9.66742 74.3074 21.9941" stroke="#EF172F" stroke-width="3" stroke-miterlimit="10" stroke-linecap="round" stroke-linejoin="round"/>
<path d="M74.308 58.0056C67.8254 70.3323 54.8943 78.7383 39.9998 78.7383C25.1426 78.7383 12.2388 70.3744 5.74023 58.0983" stroke="#EF172F" stroke-width="3" stroke-miterlimit="10" stroke-linecap="round" stroke-linejoin="round"/>
<path d="M37.1954 38.4287L59.5326 16.0915C60.1457 15.4784 60.0773 14.4607 59.3821 13.9423C53.9143 9.86434 47.1254 7.46434 39.7843 7.512C28.7145 7.58403 18.9204 13.2537 13.1035 21.8201" stroke="#EF172F" stroke-width="3" stroke-miterlimit="10" stroke-linecap="round" stroke-linejoin="round"/>
<path d="M13.0176 58.0766C13.3154 58.5195 13.624 58.9551 13.943 59.383C14.4613 60.0781 15.4791 60.1464 16.0923 59.5333L33.6652 41.9605" stroke="#EF172F" stroke-width="3" stroke-miterlimit="10" stroke-linecap="round" stroke-linejoin="round"/>
<path d="M67.0293 21.9943C66.7169 21.5269 66.3925 21.0676 66.0563 20.617C65.538 19.9218 64.5202 19.8535 63.9073 20.4667L20.4657 63.9081C19.8526 64.5212 19.921 65.5388 20.616 66.0573C26.084 70.1352 32.8729 72.5352 40.214 72.4876C45.5699 72.4527 50.6255 71.1045 55.0782 68.7549" stroke="#EF172F" stroke-width="3" stroke-miterlimit="10" stroke-linecap="round" stroke-linejoin="round"/>
<path d="M59.3203 66.0801C62.3206 63.8491 64.9288 61.1171 67.0123 58.006" stroke="#EF172F" stroke-width="3" stroke-miterlimit="10" stroke-linecap="round" stroke-linejoin="round"/>
</g>
</svg>
