<svg width="80" height="80" viewBox="0 0 80 80" fill="none" xmlns="http://www.w3.org/2000/svg">
<path d="M78.2253 13.4896L40.9053 0.156006C40.316 -0.052002 39.6733 -0.052002 39.084 0.156006L1.77333 13.4896C1.25718 13.6756 0.810973 14.0164 0.495574 14.4653C0.180175 14.9143 0.0109358 15.4496 0.0109358 15.9983C0.0109358 16.5469 0.180175 17.0823 0.495574 17.5312C0.810973 17.9802 1.25718 18.3209 1.77333 18.507L20 25.0191V33.3325C20 38.5166 37.9533 38.666 40 38.666C42.0467 38.666 60 38.5166 60 33.3325V25.0191L64 23.5991V26.6658C64 27.373 64.281 28.0513 64.781 28.5514C65.2811 29.0515 65.9594 29.3325 66.6667 29.3325H69.3333C70.0406 29.3325 70.7189 29.0515 71.219 28.5514C71.7191 28.0513 72 27.373 72 26.6658V22.6657C71.996 22.0483 71.8471 21.4404 71.5653 20.891L78.232 18.507C78.7482 18.3209 79.1944 17.9802 79.5098 17.5312C79.8252 17.0823 79.9944 16.5469 79.9944 15.9983C79.9944 15.4496 79.8252 14.9143 79.5098 14.4653C79.1944 14.0164 78.7482 13.6756 78.232 13.4896H78.2253ZM57.3333 30.3992C52.2547 28.0871 41.5533 27.9991 40 27.9991C38.4467 27.9991 27.7453 28.0871 22.6667 30.3992V18.783C23.4667 17.7563 29.7547 15.9989 40 15.9989C50.2453 15.9989 56.5333 17.7563 57.3333 18.783V30.3992ZM40 35.9993C30.1333 35.9993 23.9373 34.3699 22.7787 33.3325C23.9373 32.2952 30.136 30.6658 40 30.6658C49.864 30.6658 56.0627 32.2952 57.2213 33.3325C56.0627 34.3699 49.8667 35.9993 40 35.9993ZM64.6253 20.539L60 22.1884V18.6656C60 13.4816 42.0467 13.3322 40 13.3322C37.9533 13.3322 20 13.4816 20 18.6656V22.187L2.66667 15.9989L40.0187 2.66538L66.6667 12.1882V18.911C65.8236 19.2106 65.105 19.7837 64.6253 20.539ZM69.3333 26.6658H66.6667V22.6657C66.6667 22.3121 66.8071 21.9729 67.0572 21.7229C67.3072 21.4728 67.6464 21.3324 68 21.3324C68.3536 21.3324 68.6928 21.4728 68.9428 21.7229C69.1929 21.9729 69.3333 22.3121 69.3333 22.6657V26.6658ZM69.3333 18.8576V13.1416L77.3333 15.9989L69.3333 18.8576ZM76 41.3327C75.92 41.3327 75.84 41.3393 75.7613 41.354C63.9311 43.1933 51.9721 44.0779 40 43.9994C28.0267 44.0781 16.0693 43.1927 4.23867 41.354C4.15981 41.3406 4.08 41.3334 4 41.3327C3.06667 41.3327 0 42.39 0 55.9996C0 69.6091 3.06667 70.6665 4 70.6665C4.08 70.6652 4.16 70.6572 4.23867 70.6425C13.3289 69.2026 22.5046 68.3661 31.7053 68.1385L29.1027 74.3812C28.9072 74.87 28.8613 75.4058 28.9709 75.9207C29.0805 76.4356 29.3406 76.9063 29.7182 77.273C30.0958 77.6398 30.5739 77.8861 31.0917 77.9806C31.6096 78.0751 32.1438 78.0136 32.6267 77.8039L33.6467 77.3679L34.088 78.3826C34.2919 78.8638 34.6334 79.274 35.0696 79.5618C35.5059 79.8495 36.0174 80.002 36.54 80H36.5733C37.0997 79.9959 37.613 79.8355 38.0481 79.5393C38.4833 79.243 38.8206 78.8242 39.0173 78.3359L41.3333 72.7919L43.6413 78.3146C43.8363 78.8074 44.1737 79.2309 44.6104 79.5311C45.0472 79.8312 45.5634 79.9945 46.0933 80H46.1333C46.6525 80.0021 47.1608 79.8516 47.5951 79.5671C48.0294 79.2826 48.3705 78.8767 48.576 78.3999L49.0213 77.3773L50.0253 77.8079C50.5101 78.0219 51.0478 78.0861 51.5694 77.9922C52.0909 77.8983 52.5725 77.6506 52.9522 77.2809C53.3319 76.9113 53.5924 76.4365 53.7002 75.9177C53.808 75.3988 53.7583 74.8596 53.5573 74.3692L51.0053 68.2491C59.3013 68.5425 67.5707 69.3438 75.768 70.6492C75.844 70.6625 75.9227 70.6678 76 70.6665C76.9333 70.6665 80 69.6091 80 55.9996C80 42.39 76.9333 41.3327 76 41.3327ZM44.2667 46.6261C44.8204 48.6621 45.1429 50.754 45.228 52.8622C43.743 52.1717 42.1014 51.8877 40.4708 52.0393C38.8401 52.1908 37.2789 52.7725 35.9467 53.7249C35.8785 51.3305 35.5716 48.9489 35.0307 46.6154C38.109 46.6788 41.1882 46.6823 44.2667 46.6261ZM41.3333 67.9998C39.5652 67.9998 37.8695 67.2974 36.6193 66.0471C35.369 64.7969 34.6667 63.1011 34.6667 61.333C34.6667 59.5649 35.369 57.8691 36.6193 56.6189C37.8695 55.3686 39.5652 54.6662 41.3333 54.6662C43.1014 54.6662 44.7971 55.3686 46.0474 56.6189C47.2976 57.8691 48 59.5649 48 61.333C48 63.1011 47.2976 64.7969 46.0474 66.0471C44.7971 67.2974 43.1014 67.9998 41.3333 67.9998ZM4 44.6661C5.02162 48.3534 5.4713 52.1758 5.33333 55.9996C5.4713 59.8234 5.02162 63.6457 4 67.3331C2.97838 63.6457 2.5287 59.8234 2.66667 55.9996C2.5287 52.1758 2.97838 48.3534 4 44.6661ZM6.69333 67.5598C7.42267 65.4451 8 61.9063 8 55.9996C8 50.0928 7.42267 46.5541 6.692 44.4367C15.1648 45.6069 23.6954 46.3115 32.2453 46.5474C33.0453 49.6328 33.4107 52.8142 33.3333 55.9996C33.3333 56.1929 33.3333 56.3769 33.3253 56.5623C32.5376 57.8696 32.0861 59.3518 32.0112 60.8763C31.9363 62.4008 32.2403 63.9201 32.896 65.2984L32.8373 65.4397C24.0907 65.6531 15.3613 66.3624 6.69333 67.5624V67.5598ZM36.5427 77.3333L35.5693 75.0932C35.4287 74.7701 35.1659 74.5158 34.8384 74.3859C34.5108 74.256 34.1452 74.261 33.8213 74.3999L31.5773 75.3919L34.704 67.8958C35.9877 69.1966 37.6253 70.0914 39.4133 70.4692L36.5427 77.3333ZM48.8453 74.3999C48.5215 74.261 48.1558 74.256 47.8283 74.3859C47.5008 74.5158 47.238 74.7701 47.0973 75.0932L46.1107 77.3106L43.252 70.4665C45.0414 70.0886 46.6804 69.1933 47.9653 67.8918L51.0853 75.3586L48.8453 74.3999ZM75.7333 67.9331C67.1671 66.6147 58.5292 65.8132 49.8667 65.5331L49.772 65.3037C50.5904 63.5791 50.857 61.6439 50.5354 59.7622C50.2137 57.8805 49.3195 56.1438 47.9747 54.7889C47.9644 52.0237 47.645 49.2683 47.0227 46.5741C56.636 46.3594 66.228 45.5207 75.7333 44.0647C76.352 45.1154 77.3333 49.2715 77.3333 55.9996C77.3333 62.7277 76.3453 66.8824 75.7333 67.9331Z" fill="#EF172F"/>
</svg>
