<svg width="120" height="120" viewBox="0 0 120 120" fill="none" xmlns="http://www.w3.org/2000/svg">
<path d="M48.1201 107.313C70.6177 107.313 88.8555 89.0747 88.8555 66.5772C88.8555 44.0796 70.6177 25.8418 48.1201 25.8418C25.6226 25.8418 7.38477 44.0796 7.38477 66.5772C7.38477 89.0747 25.6226 107.313 48.1201 107.313Z" fill="#B0EF8F"/>
<path d="M48.5797 98.0625L48.0631 97.1821C40.1707 83.7352 19.198 55.1987 18.9861 54.9121L18.6836 54.5011L25.8289 47.4395L48.4471 63.2331C62.6881 44.7534 75.9739 32.0606 84.6402 24.6485C94.1204 16.5405 100.291 12.8078 100.354 12.772L100.494 12.688H112.615L111.457 13.7191C81.6808 40.2405 49.4068 96.6091 49.0854 97.1754L48.5797 98.0625Z" fill="#009045"/>
</svg>
