<svg width="22" height="22" viewBox="0 0 22 22" fill="none" xmlns="http://www.w3.org/2000/svg">
<path d="M20.9955 15.9625C20.0832 15.025 17.4897 13.2687 15.79 13.2687C15.3963 13.2687 15.0526 13.3563 14.7714 13.5375C13.9402 14.0688 13.2778 14.4812 12.9591 14.4812C12.7841 14.4812 12.5966 14.325 12.1842 13.9688L12.1155 13.9062C10.9719 12.9125 10.7281 12.6562 10.2844 12.1938L10.172 12.075C10.0907 11.9937 10.022 11.9188 9.95324 11.85C9.56579 11.45 9.28457 11.1625 8.29096 10.0375L8.24721 9.9875C7.77227 9.45 7.45981 9.1 7.44107 8.84375C7.42232 8.59375 7.64104 8.1875 8.19722 7.43125C8.87213 6.51875 8.89713 5.39375 8.27846 4.0875C7.78477 3.05625 6.97863 2.06875 6.26622 1.2L6.20373 1.125C5.59131 0.375 4.8789 0 4.08526 0C3.20412 0 2.47297 0.475 2.08552 0.725C2.05428 0.74375 2.02303 0.76875 1.99178 0.7875C1.12315 1.3375 0.491982 2.09375 0.254513 2.8625C-0.10169 4.01875 -0.339158 5.51875 1.36687 8.6375C2.84167 11.3375 4.179 13.15 6.30372 15.3312C8.30345 17.3812 9.19084 18.0437 11.1781 19.4812C13.3903 21.0812 15.515 22 17.0023 22C18.3834 22 19.4707 22 21.0205 20.1313C22.6453 18.1688 21.9704 16.9688 20.9955 15.9625Z" fill="white"/>
</svg>
