<svg width="20" height="20" viewBox="0 0 20 20" fill="none" xmlns="http://www.w3.org/2000/svg">
<g clip-path="url(#clip0_142_4368)">
<mask id="mask0_142_4368" style="mask-type:luminance" maskUnits="userSpaceOnUse" x="0" y="0" width="20" height="20">
<path d="M20 0H0V20H20V0Z" fill="white"/>
</mask>
<g mask="url(#mask0_142_4368)">
<path d="M20 0H0V20H20V0Z" fill="#FF0032"/>
<path d="M13.3232 1.53809V2.45852H15.3359V6.15254H16.4609V2.45852H18.4695V1.53809H13.3232Z" fill="white"/>
<path d="M6.08709 1.53809L4.61436 4.58986L3.14578 1.53809H1.53809V6.15254H2.66715V2.85124L4.10303 5.64118H5.12982L6.56568 2.85124V6.15254H7.69068V1.53809H6.08709Z" fill="white"/>
<path d="M17.3453 16.9237C17.3167 17.1078 17.243 17.2591 17.1244 17.3737C17.0139 17.48 16.8626 17.5578 16.6744 17.6028C16.4903 17.6437 16.2163 17.6682 15.9299 17.6682C15.6313 17.6682 15.3694 17.6314 15.1444 17.5537C14.9276 17.48 14.7558 17.3491 14.6372 17.1691C14.5144 16.9891 14.4531 16.7273 14.4531 16.3878V15.9173C14.4531 15.5819 14.5144 15.3201 14.6372 15.136C14.7599 14.956 14.9276 14.8251 15.1444 14.7515C15.3654 14.6738 15.6313 14.6369 15.9299 14.6369C16.2163 14.6369 16.4903 14.6615 16.6744 14.7024C16.8626 14.7474 17.0139 14.821 17.1244 14.9314C17.243 15.046 17.3167 15.1973 17.3453 15.3814H18.4703C18.4375 15.001 18.3108 14.6778 18.0858 14.416C17.8812 14.1788 17.5949 14.0069 17.2389 13.9006C16.8953 13.7983 16.4412 13.7451 15.9299 13.7451C15.3899 13.7451 14.9235 13.8228 14.539 13.9742C14.1504 14.1297 13.8477 14.3874 13.639 14.7433C13.4386 15.0828 13.3363 15.541 13.3281 16.0973V16.1505L13.3895 16.1546L13.3281 16.1587V16.1628V16.2119C13.3363 16.7683 13.4386 17.2264 13.639 17.5659C13.8477 17.9218 14.1504 18.1796 14.539 18.335C14.9235 18.4864 15.3899 18.5641 15.9299 18.5641C16.4412 18.5641 16.8953 18.5109 17.2389 18.4087C17.5949 18.3023 17.8771 18.1305 18.0858 17.8932C18.3108 17.6355 18.4416 17.3082 18.4703 16.9278H17.3453V16.9237Z" fill="white"/>
</g>
</g>
<defs>
<clipPath id="clip0_142_4368">
<rect width="20" height="20" fill="white"/>
</clipPath>
</defs>
</svg>
