<svg width="20" height="17" viewBox="0 0 20 17" fill="none" xmlns="http://www.w3.org/2000/svg">
<path d="M18.3037 0.150126C15.6653 1.27408 4.35197 6.09391 1.22611 7.40755C-0.870234 8.24898 0.356993 9.03791 0.356993 9.03791C0.356993 9.03791 2.14648 9.66892 3.68056 10.1422C5.21443 10.6156 6.03251 10.0897 6.03251 10.0897L13.2419 5.09369C15.7984 3.30563 15.1849 4.77807 14.5712 5.40931C13.2419 6.77676 11.0433 8.9327 9.20254 10.6683C8.38446 11.4045 8.7934 12.0355 9.15151 12.3511C10.4808 13.5082 14.1112 15.8747 14.3156 16.0324C15.3957 16.8189 17.5204 17.9511 17.8435 15.5591L19.1218 7.30257C19.5309 4.51539 19.9399 1.9384 19.9909 1.20218C20.1444 -0.586093 18.3037 0.150126 18.3037 0.150126Z" fill="#2BA1DB"/>
</svg>
